<svg xmlns="http://www.w3.org/2000/svg" width="238.7803955078125" height="228.4862823486328" viewBox="-25.88475799560547 -15.27247428894043 238.7803955078125 228.4862823486328"><title>Neo4j Graph Visualization</title><desc>Created using Neo4j (http://www.neo4j.com/)</desc><g class="layer relationships"><g class="relationship" transform="translate(167.99553153736534 184.21380592583307) rotate(278.6449123353825)"><path class="outline" fill="#A5ABB6" stroke="none" d="M 21.40063509461097,12.933012701892217 L 21.90063509461097,12.06698729810778 A 58.20858022740705 58.20858022740705 0 0 0 37.4128153393614,18.25628941968229 L 37.17930835781586,19.228644544916634 A 59.20858022740705 59.20858022740705 0 0 1 21.40063509461097,12.933012701892217 Z M 61.203759165497736,19.98045616927709 L 61.0315065305247,18.995403363715454 A 58.20858022740705 58.20858022740705 0 0 0 76.90032681439925,13.788125812456537 L 75.56570905676364,11.10134419851697 L 83.39192020653084,11.121814646963381 L 78.67981715791339,17.370501297709293 L 77.34519940027778,14.683719683769725 A 59.20858022740705 59.20858022740705 0 0 1 61.203759165497736,19.98045616927709"/><text text-anchor="middle" pointer-events="none" font-size="8px" fill="#000000" x="49.168621126379755" y="23.336733075814465" font-family="sans-serif">road</text></g><g class="relationship" transform="translate(183.89562617253193 79.63384026326405) rotate(218.73651901609384)"><path class="outline" fill="#A5ABB6" stroke="none" d="M 25 0.5 L 38.26270282535549 0.5 L 38.26270282535549 -0.5 L 25 -0.5 Z M 60.06270301609035 0.5 L 73.32540584144584 0.5 L 73.32540584144584 3.5 L 80.32540584144584 0 L 73.32540584144584 -3.5 L 73.32540584144584 -0.5 L 60.06270301609035 -0.5 Z"/><text text-anchor="middle" pointer-events="none" font-size="8px" fill="#000000" x="49.16270292072292" y="3" transform="rotate(180 49.16270292072292 0)" font-family="sans-serif">trek</text></g><g class="relationship" transform="translate(101.73846727159804 13.727525262408694) rotate(518.8650035769001)"><path class="outline" fill="#A5ABB6" stroke="none" d="M 25 0.5 L 38.46784889164013 0.5 L 38.46784889164013 -0.5 L 25 -0.5 Z M 60.267849082374994 0.5 L 73.73569797401512 0.5 L 73.73569797401512 3.5 L 80.73569797401512 0 L 73.73569797401512 -3.5 L 73.73569797401512 -0.5 L 60.267849082374994 -0.5 Z"/><text text-anchor="middle" pointer-events="none" font-size="8px" fill="#000000" x="49.36784898700756" y="3" transform="rotate(180 49.36784898700756 0)" font-family="sans-serif">trek</text></g><g class="relationship" transform="translate(167.99553153736534 184.21380592583307) rotate(278.6449123353825)"><path class="outline" fill="#A5ABB6" stroke="none" d="M 25 0.5 L 38.49088339931284 0.5 L 38.49088339931284 -0.5 L 25 -0.5 Z M 60.290883590047706 0.5 L 73.78176698936055 0.5 L 73.78176698936055 3.5 L 80.78176698936055 0 L 73.78176698936055 -3.5 L 73.78176698936055 -0.5 L 60.290883590047706 -0.5 Z"/><text text-anchor="middle" pointer-events="none" font-size="8px" fill="#000000" x="49.390883494680274" y="3" font-family="sans-serif">trek</text></g><g class="relationship" transform="translate(167.99553153736534 184.21380592583307) rotate(278.6449123353825)"><path class="outline" fill="#A5ABB6" stroke="none" d="M 21.40063509461097,-12.933012701892217 L 21.90063509461097,-12.06698729810778 A 58.20858022740705 58.20858022740705 0 0 1 23.273316801992443,-12.83496625880786 L 22.79689892170776,-13.714185232297993 A 59.20858022740705 59.20858022740705 0 0 0 21.40063509461097,-12.933012701892217 Z M 75.9028240170107,-15.376060965844331 L 75.48231234939313,-14.46877383521948 A 58.20858022740705 58.20858022740705 0 0 1 76.90032681439925,-13.788125812456537 L 75.56570905676364,-11.10134419851697 L 83.39192020653084,-11.121814646963381 L 78.67981715791339,-17.370501297709293 L 77.34519940027778,-14.683719683769725 A 59.20858022740705 59.20858022740705 0 0 0 75.9028240170107,-15.376060965844331"/><text text-anchor="middle" pointer-events="none" font-size="8px" fill="#000000" x="49.16862112637977" y="-17.336733075814465" font-family="sans-serif">PublicTran…</text></g></g><g class="layer nodes"><g class="node" transform="translate(167.99553153736534,184.21380592583307)"><circle class="outline" cx="0" cy="0" r="25" fill="#F16667" stroke="#eb2728" stroke-width="2px"/><text text-anchor="middle" pointer-events="none" font-family="sans-serif" dy="1.5625" font-size="25" fill="#FFFFFF"/><text text-anchor="middle" pointer-events="none" y="5" font-size="10px" fill="#FFFFFF" font-family="sans-serif"> Darjeeli…</text></g><g class="node" transform="translate(183.89562617253193,79.63384026326405)"><circle class="outline" cx="0" cy="0" r="25" fill="#F16667" stroke="#eb2728" stroke-width="2px"/><text text-anchor="middle" pointer-events="none" font-family="sans-serif" dy="1.5625" font-size="25" fill="#FFFFFF"/><text text-anchor="middle" pointer-events="none" y="5" font-size="10px" fill="#FFFFFF" font-family="sans-serif"> Rimbik</text></g><g class="node" transform="translate(101.73846727159804,13.727525262408694)"><circle class="outline" cx="0" cy="0" r="25" fill="#D9C8AE" stroke="#c0a378" stroke-width="2px"/><text text-anchor="middle" pointer-events="none" font-family="sans-serif" dy="1.5625" font-size="25" fill="#604A0E"/><text text-anchor="middle" pointer-events="none" y="5" font-size="10px" fill="#604A0E" font-family="sans-serif"> BhikeB…</text></g><g class="node" transform="translate(3.1152424015309723,51.85228548828202)"><circle class="outline" cx="0" cy="0" r="25" fill="#8DCC93" stroke="#5db665" stroke-width="2px"/><text text-anchor="middle" pointer-events="none" font-family="sans-serif" dy="1.5625" font-size="25" fill="#604A0E"/><text text-anchor="middle" pointer-events="none" y="5" font-size="10px" fill="#604A0E" font-family="sans-serif"> Sandak…</text></g></g></svg>