<svg xmlns="http://www.w3.org/2000/svg" width="180.29953002929688" height="174.72384643554688" viewBox="24.40609359741211 17.03488540649414 180.29953002929688 174.72384643554688"><title>Neo4j Graph Visualization</title><desc>Created using Neo4j (http://www.neo4j.com/)</desc><g class="layer relationships"><g class="relationship" transform="translate(158.85092183896865 59.378272035066665) rotate(463.4244129067484)"><path class="outline" fill="#A5ABB6" stroke="none" d="M 12.066987298107785,-21.900635094610966 L 12.933012701892222,-21.400635094610966 A 44.26218554093841 44.26218554093841 0 0 1 15.159275602952484,-24.8723552228068 L 14.343547374371951,-25.450790575371684 A 45.26218554093841 45.26218554093841 0 0 0 12.066987298107785,-21.900635094610966 Z M 85.07974862698421,-29.35676638647187 L 84.33266674360864,-28.69203436563039 A 44.26218554093841 44.26218554093841 0 0 1 86.92763827542848,-25.48653753952029 L 84.51051078620324,-23.709603466226714 L 91.4766723613177,-20.142729076876996 L 90.1504749277288,-27.855782970578392 L 87.73334743850356,-26.078848897284814 A 45.26218554093841 45.26218554093841 0 0 0 85.07974862698421,-29.35676638647187"/><text text-anchor="middle" pointer-events="none" font-size="8px" fill="#000000" x="48.7972304862284" y="-40.96364071744878" transform="rotate(180 48.7972304862284 -43.96364071744878)" font-family="sans-serif">CHEAPEST_FLIGHT</text></g><g class="relationship" transform="translate(53.40609370241477 46.034883524336166) rotate(367.2120917510008)"><path class="outline" fill="#A5ABB6" stroke="none" d="M 24.018736134675446,6.953439040707552 L 24.277555179777966,5.987513214418485 A 104.27477374297199 104.27477374297199 0 0 0 24.486820884521993,6.043352920587154 L 24.230008707401364,7.009814252292955 A 105.27477374297199 105.27477374297199 0 0 1 24.018736134675446,6.953439040707552 Z M 75.02748125755551,7.823911896883303 L 74.80177069210367,6.849717490902947 A 104.27477374297199 104.27477374297199 0 0 0 75.0127182801484,6.800612266485264 L 74.3295175918266,3.8794418128012254 L 81.9426494534648,5.693339069348388 L 75.92365253124416,10.695506204730648 L 75.24045184292235,7.77433575104661 A 105.27477374297199 105.27477374297199 0 0 1 75.02748125755551,7.823911896883303"/><text text-anchor="middle" pointer-events="none" font-size="8px" fill="#000000" x="49.58691183792511" y="13.027137193737545" font-family="sans-serif">CHEAPES…</text></g><g class="relationship" transform="translate(158.85092183896865 59.378272035066665) rotate(463.4244129067484)"><path class="outline" fill="#A5ABB6" stroke="none" d="M 21.40063509461097,-12.933012701892217 L 21.90063509461097,-12.06698729810778 A 58.729109425508355 58.729109425508355 0 0 1 22.930696545990006,-12.647944895703205 L 22.448235743526887,-13.52386245694207 A 59.729109425508355 59.729109425508355 0 0 0 21.40063509461097,-12.933012701892217 Z M 76.7696502924544,-15.216169061321452 L 76.34264810323045,-14.311918470833426 A 58.729109425508355 58.729109425508355 0 0 1 77.40687477192631,-13.796205448448463 L 76.07150538422671,-11.109797326365221 L 83.89772195473714,-11.128078230829951 L 79.18736728885911,-17.378082944559452 L 77.8519979011595,-14.69167482247621 A 59.729109425508355 59.729109425508355 0 0 0 76.7696502924544,-15.216169061321452"/><text text-anchor="middle" pointer-events="none" font-size="8px" fill="#000000" x="49.420885705251" y="-17.406474647758294" transform="rotate(180 49.420885705251 -20.406474647758294)" font-family="sans-serif">CHEAPEST…</text></g><g class="relationship" transform="translate(158.85092183896865 59.378272035066665) rotate(187.2120917510008)"><path class="outline" fill="#A5ABB6" stroke="none" d="M 24.018736134675446,6.953439040707552 L 24.277555179777966,5.987513214418485 A 104.27477374297199 104.27477374297199 0 0 0 24.486820884521993,6.043352920587154 L 24.230008707401364,7.009814252292955 A 105.27477374297199 105.27477374297199 0 0 1 24.018736134675446,6.953439040707552 Z M 75.02748125755551,7.823911896883303 L 74.80177069210367,6.849717490902947 A 104.27477374297199 104.27477374297199 0 0 0 75.0127182801484,6.800612266485264 L 74.3295175918266,3.8794418128012254 L 81.9426494534648,5.693339069348388 L 75.92365253124416,10.695506204730648 L 75.24045184292235,7.77433575104661 A 105.27477374297199 105.27477374297199 0 0 1 75.02748125755551,7.823911896883303"/><text text-anchor="middle" pointer-events="none" font-size="8px" fill="#000000" x="49.58691183792511" y="13.027137193737545" transform="rotate(180 49.58691183792511 10.027137193737545)" font-family="sans-serif">CHEAPES…</text></g><g class="relationship" transform="translate(158.85092183896865 59.378272035066665) rotate(463.4244129067484)"><path class="outline" fill="#A5ABB6" stroke="none" d="M 25 0.5 L 26.650561358892176 0.5 L 26.650561358892176 -0.5 L 25 -0.5 Z M 72.63389494653866 0.5 L 74.28445630543084 0.5 L 74.28445630543084 3.5 L 81.28445630543084 0 L 74.28445630543084 -3.5 L 74.28445630543084 -0.5 L 72.63389494653866 -0.5 Z"/><text text-anchor="middle" pointer-events="none" font-size="8px" fill="#000000" x="49.64222815271542" y="3" transform="rotate(180 49.64222815271542 0)" font-family="sans-serif">CHEAPE…</text></g><g class="relationship" transform="translate(158.85092183896865 59.378272035066665) rotate(463.4244129067484)"><path class="outline" fill="#A5ABB6" stroke="none" d="M 21.40063509461097,12.933012701892217 L 21.90063509461097,12.06698729810778 A 58.729109425508355 58.729109425508355 0 0 0 22.930696545990006,12.647944895703205 L 22.448235743526887,13.52386245694207 A 59.729109425508355 59.729109425508355 0 0 1 21.40063509461097,12.933012701892217 Z M 76.76965029245441,15.216169061321452 L 76.34264810323046,14.311918470833426 A 58.729109425508355 58.729109425508355 0 0 0 77.40687477192631,13.796205448448463 L 76.07150538422671,11.109797326365221 L 83.89772195473714,11.128078230829951 L 79.18736728885911,17.378082944559452 L 77.8519979011595,14.69167482247621 A 59.729109425508355 59.729109425508355 0 0 1 76.76965029245441,15.216169061321452"/><text text-anchor="middle" pointer-events="none" font-size="8px" fill="#000000" x="49.42088570525101" y="23.4064746477583" transform="rotate(180 49.42088570525101 20.4064746477583)" font-family="sans-serif">CHEAPEST…</text></g><g class="relationship" transform="translate(158.85092183896865 59.378272035066665) rotate(463.4244129067484)"><path class="outline" fill="#A5ABB6" stroke="none" d="M 12.066987298107785,21.900635094610966 L 12.933012701892222,21.400635094610966 A 44.26218554093841 44.26218554093841 0 0 0 15.15927560295249,24.87235522280681 L 14.343547374371951,25.450790575371695 A 45.26218554093841 45.26218554093841 0 0 1 12.066987298107785,21.900635094610966 Z M 85.07974862698421,29.35676638647188 L 84.33266674360864,28.692034365630395 A 44.26218554093841 44.26218554093841 0 0 0 86.92763827542848,25.48653753952029 L 84.51051078620324,23.709603466226714 L 91.4766723613177,20.142729076876996 L 90.1504749277288,27.855782970578392 L 87.73334743850356,26.078848897284814 A 45.26218554093841 45.26218554093841 0 0 1 85.07974862698421,29.35676638647188"/><text text-anchor="middle" pointer-events="none" font-size="8px" fill="#000000" x="48.79723048622841" y="46.96364071744878" transform="rotate(180 48.79723048622841 43.96364071744878)" font-family="sans-serif">CHEAPEST_FLIGHT</text></g></g><g class="layer nodes"><g class="node" transform="translate(134.17567075586913,162.75872297298352)"><circle class="outline" cx="0" cy="0" r="25" fill="#ECB5C9" stroke="#da7298" stroke-width="2px"/><text text-anchor="middle" pointer-events="none" font-family="sans-serif" dy="1.5625" font-size="25" fill="#604A0E"/><text text-anchor="middle" pointer-events="none" y="5" font-size="10px" fill="#604A0E" font-family="sans-serif"> GRR</text></g><g class="node" transform="translate(158.85092183896865,59.378272035066665)"><circle class="outline" cx="0" cy="0" r="25" fill="#ECB5C9" stroke="#da7298" stroke-width="2px"/><text text-anchor="middle" pointer-events="none" font-family="sans-serif" dy="1.5625" font-size="25" fill="#604A0E"/><text text-anchor="middle" pointer-events="none" y="5" font-size="10px" fill="#604A0E" font-family="sans-serif"> ORD</text></g><g class="node" transform="translate(53.40609370241477,46.034883524336166)"><circle class="outline" cx="0" cy="0" r="25" fill="#ECB5C9" stroke="#da7298" stroke-width="2px"/><text text-anchor="middle" pointer-events="none" font-family="sans-serif" dy="1.5625" font-size="25" fill="#604A0E"/><text text-anchor="middle" pointer-events="none" y="5" font-size="10px" fill="#604A0E" font-family="sans-serif"> MSN</text></g></g></svg>