<svg xmlns="http://www.w3.org/2000/svg" width="251.61512756347656" height="255.22227478027344" viewBox="-29.511791229248047 -21.027629852294922 251.61512756347656 255.22227478027344"><title>Neo4j Graph Visualization</title><desc>Created using Neo4j (http://www.neo4j.com/)</desc><g class="layer relationships"><g class="relationship" transform="translate(149.40246556857713 205.1946436229304) rotate(234.21695863434036)"><path class="outline" fill="#A5ABB6" stroke="none" d="M 25 0.5 L 34.60021741673149 0.5 L 34.60021741673149 -0.5 L 25 -0.5 Z M 70.31688459202445 0.5 L 79.91710200875595 0.5 L 79.91710200875595 3.5 L 86.91710200875595 0 L 79.91710200875595 -3.5 L 79.91710200875595 -0.5 L 70.31688459202445 -0.5 Z"/><text text-anchor="middle" pointer-events="none" font-size="8px" fill="#000000" x="52.45855100437797" y="3" transform="rotate(180 52.45855100437797 0)" font-family="sans-serif">WROTE</text></g><g class="relationship" transform="translate(193.10333051059297 90.18391257040719) rotate(527.4882310561354)"><path class="outline" fill="#A5ABB6" stroke="none" d="M 25 0.5 L 29.714537958670064 0.5 L 29.714537958670064 -0.5 L 25 -0.5 Z M 75.08120284514467 0.5 L 79.79574080381474 0.5 L 79.79574080381474 3.5 L 86.79574080381474 0 L 79.79574080381474 -3.5 L 79.79574080381474 -0.5 L 75.08120284514467 -0.5 Z"/><text text-anchor="middle" pointer-events="none" font-size="8px" fill="#000000" x="52.39787040190737" y="3" transform="rotate(180 52.39787040190737 0)" font-family="sans-serif">ACTED_IN</text></g><g class="relationship" transform="translate(118.13083730120636 7.972370877334261) rotate(467.7985446237995)"><path class="outline" fill="#A5ABB6" stroke="none" d="M 25 0.5 L 34.532241950439385 0.5 L 34.532241950439385 -0.5 L 25 -0.5 Z M 70.24890912573235 0.5 L 79.78115107617174 0.5 L 79.78115107617174 3.5 L 86.78115107617174 0 L 79.78115107617174 -3.5 L 79.78115107617174 -0.5 L 70.24890912573235 -0.5 Z"/><text text-anchor="middle" pointer-events="none" font-size="8px" fill="#000000" x="52.39057553808587" y="3" transform="rotate(180 52.39057553808587 0)" font-family="sans-serif">WROTE</text></g><g class="relationship" transform="translate(-0.5117920716274301 41.048824064628896) rotate(400.96988875272206)"><path class="outline" fill="#A5ABB6" stroke="none" d="M 25 0.5 L 29.02259824795157 0.5 L 29.02259824795157 -0.5 L 25 -0.5 Z M 75.85593030971916 0.5 L 79.87852855767072 0.5 L 79.87852855767072 3.5 L 86.87852855767072 0 L 79.87852855767072 -3.5 L 79.87852855767072 -0.5 L 75.85593030971916 -0.5 Z"/><text text-anchor="middle" pointer-events="none" font-size="8px" fill="#000000" x="52.43926427883536" y="3" font-family="sans-serif">DIRECTED</text></g><g class="relationship" transform="translate(3.1944161107583247 188.36033779292111) rotate(317.5205964993807)"><path class="outline" fill="#A5ABB6" stroke="none" d="M 25 0.5 L 28.573240500681223 0.5 L 28.573240500681223 -0.5 L 25 -0.5 Z M 73.93990538715583 0.5 L 77.51314588783706 0.5 L 77.51314588783706 3.5 L 84.51314588783706 0 L 77.51314588783706 -3.5 L 77.51314588783706 -0.5 L 73.93990538715583 -0.5 Z"/><text text-anchor="middle" pointer-events="none" font-size="8px" fill="#000000" x="51.25657294391853" y="3" font-family="sans-serif">ACTED_IN</text></g></g><g class="layer nodes"><g class="node" transform="translate(149.40246556857713,205.1946436229304)"><circle class="outline" cx="0" cy="0" r="25" fill="#F79767" stroke="#f36924" stroke-width="2px"/><text text-anchor="middle" pointer-events="none" font-family="sans-serif" dy="1.5625" font-size="25" fill="#FFFFFF"/><text text-anchor="middle" pointer-events="none" y="5" font-size="10px" fill="#FFFFFF" font-family="sans-serif"> Christo…</text></g><g class="node" transform="translate(83.9625676876784,114.40335831769954)"><circle class="outline" cx="0" cy="0" r="25" fill="#57C7E3" stroke="#23b3d7" stroke-width="2px"/><text text-anchor="middle" pointer-events="none" font-family="sans-serif" dy="1.5625" font-size="25" fill="#FFFFFF"/><text text-anchor="middle" pointer-events="none" font-family="sans-serif" dy="1.5625" font-size="25" fill="#FFFFFF"/><text text-anchor="middle" pointer-events="none" y="0" font-size="10px" fill="#FFFFFF" font-family="sans-serif"> Captain</text><text text-anchor="middle" pointer-events="none" y="10" font-size="10px" fill="#FFFFFF" font-family="sans-serif"> Americ…</text></g><g class="node" transform="translate(193.10333051059297,90.18391257040719)"><circle class="outline" cx="0" cy="0" r="25" fill="#F79767" stroke="#f36924" stroke-width="2px"/><text text-anchor="middle" pointer-events="none" font-family="sans-serif" dy="1.5625" font-size="25" fill="#FFFFFF"/><text text-anchor="middle" pointer-events="none" font-family="sans-serif" dy="1.5625" font-size="25" fill="#FFFFFF"/><text text-anchor="middle" pointer-events="none" y="0" font-size="10px" fill="#FFFFFF" font-family="sans-serif"> Chris</text><text text-anchor="middle" pointer-events="none" y="10" font-size="10px" fill="#FFFFFF" font-family="sans-serif"> Evans</text></g><g class="node" transform="translate(118.13083730120636,7.972370877334261)"><circle class="outline" cx="0" cy="0" r="25" fill="#F79767" stroke="#f36924" stroke-width="2px"/><text text-anchor="middle" pointer-events="none" font-family="sans-serif" dy="1.5625" font-size="25" fill="#FFFFFF"/><text text-anchor="middle" pointer-events="none" font-family="sans-serif" dy="1.5625" font-size="25" fill="#FFFFFF"/><text text-anchor="middle" pointer-events="none" y="0" font-size="10px" fill="#FFFFFF" font-family="sans-serif"> Stephen</text><text text-anchor="middle" pointer-events="none" y="10" font-size="10px" fill="#FFFFFF" font-family="sans-serif"> McFeely</text></g><g class="node" transform="translate(-0.5117920716274301,41.048824064628896)"><circle class="outline" cx="0" cy="0" r="25" fill="#F79767" stroke="#f36924" stroke-width="2px"/><text text-anchor="middle" pointer-events="none" font-family="sans-serif" dy="1.5625" font-size="25" fill="#FFFFFF"/><text text-anchor="middle" pointer-events="none" font-family="sans-serif" dy="1.5625" font-size="25" fill="#FFFFFF"/><text text-anchor="middle" pointer-events="none" y="0" font-size="10px" fill="#FFFFFF" font-family="sans-serif"> Joe</text><text text-anchor="middle" pointer-events="none" y="10" font-size="10px" fill="#FFFFFF" font-family="sans-serif"> Johnst…</text></g><g class="node" transform="translate(3.1944161107583247,188.36033779292111)"><circle class="outline" cx="0" cy="0" r="25" fill="#F79767" stroke="#f36924" stroke-width="2px"/><text text-anchor="middle" pointer-events="none" font-family="sans-serif" dy="1.5625" font-size="25" fill="#FFFFFF"/><text text-anchor="middle" pointer-events="none" font-family="sans-serif" dy="1.5625" font-size="25" fill="#FFFFFF"/><text text-anchor="middle" pointer-events="none" y="0" font-size="10px" fill="#FFFFFF" font-family="sans-serif"> Hayley</text><text text-anchor="middle" pointer-events="none" y="10" font-size="10px" fill="#FFFFFF" font-family="sans-serif"> Atwell</text></g></g></svg>