<svg xmlns="http://www.w3.org/2000/svg" width="505.0546569824219" height="335.33978271484375" viewBox="-140.06582641601562 -74.44517517089844 505.0546569824219 335.33978271484375"><title>Neo4j Graph Visualization</title><desc>Created using Neo4j (http://www.neo4j.com/)</desc><g class="layer relationships"><g class="relationship" transform="translate(166.52125898118572 231.89458916925068) rotate(254.83174270374286)"><path class="outline" fill="#A5ABB6" stroke="none" d="M 25 0.5 L 37.54489135492099 0.5 L 37.54489135492099 -0.5 L 25 -0.5 Z M 82.9115562413956 0.5 L 95.4564475963166 0.5 L 95.4564475963166 3.5 L 102.4564475963166 0 L 95.4564475963166 -3.5 L 95.4564475963166 -0.5 L 82.9115562413956 -0.5 Z"/><text text-anchor="middle" pointer-events="none" font-size="8px" fill="#000000" x="60.2282237981583" y="3" transform="rotate(180 60.2282237981583 0)" font-family="sans-serif">ACTED_IN</text></g><g class="relationship" transform="translate(218.0405289734764 62.648954560892506) rotate(406.0221380010553)"><path class="outline" fill="#A5ABB6" stroke="none" d="M 25 0.5 L 34.789879665040054 0.5 L 34.789879665040054 -0.5 L 25 -0.5 Z M 80.15654455151466 0.5 L 89.94642421655472 0.5 L 89.94642421655472 3.5 L 96.94642421655472 0 L 89.94642421655472 -3.5 L 89.94642421655472 -0.5 L 80.15654455151466 -0.5 Z"/><text text-anchor="middle" pointer-events="none" font-size="8px" fill="#000000" x="57.47321210827736" y="3" font-family="sans-serif">ACTED_IN</text></g><g class="relationship" transform="translate(218.0405289734764 62.648954560892506) rotate(349.9349458156887)"><path class="outline" fill="#A5ABB6" stroke="none" d="M 25 0.5 L 33.712620987218834 0.5 L 33.712620987218834 -0.5 L 25 -0.5 Z M 79.07928587369344 0.5 L 87.79190686091228 0.5 L 87.79190686091228 3.5 L 94.79190686091228 0 L 87.79190686091228 -3.5 L 87.79190686091228 -0.5 L 79.07928587369344 -0.5 Z"/><text text-anchor="middle" pointer-events="none" font-size="8px" fill="#000000" x="56.39595343045614" y="3" font-family="sans-serif">ACTED_IN</text></g><g class="relationship" transform="translate(218.0405289734764 62.648954560892506) rotate(184.23452799630684)"><path class="outline" fill="#A5ABB6" stroke="none" d="M 25 0.5 L 29.063030203184 0.5 L 29.063030203184 -0.5 L 25 -0.5 Z M 74.42969508965861 0.5 L 78.49272529284261 0.5 L 78.49272529284261 3.5 L 85.49272529284261 0 L 78.49272529284261 -3.5 L 78.49272529284261 -0.5 L 74.42969508965861 -0.5 Z"/><text text-anchor="middle" pointer-events="none" font-size="8px" fill="#000000" x="51.746362646421304" y="3" transform="rotate(180 51.746362646421304 0)" font-family="sans-serif">ACTED_IN</text></g><g class="relationship" transform="translate(218.0405289734764 62.648954560892506) rotate(203.70279228798347)"><path class="outline" fill="#A5ABB6" stroke="none" d="M 25 0.5 L 49.57469913562919 0.5 L 49.57469913562919 -0.5 L 25 -0.5 Z M 94.9413640221038 0.5 L 119.51606315773299 0.5 L 119.51606315773299 3.5 L 126.51606315773299 0 L 119.51606315773299 -3.5 L 119.51606315773299 -0.5 L 94.9413640221038 -0.5 Z"/><text text-anchor="middle" pointer-events="none" font-size="8px" fill="#000000" x="72.2580315788665" y="3" transform="rotate(180 72.2580315788665 0)" font-family="sans-serif">ACTED_IN</text></g><g class="relationship" transform="translate(218.0405289734764 62.648954560892506) rotate(511.4220802105182)"><path class="outline" fill="#A5ABB6" stroke="none" d="M 25 0.5 L 27.396552839026334 0.5 L 27.396552839026334 -0.5 L 25 -0.5 Z M 62.24655322049606 0.5 L 64.6431060595224 0.5 L 64.6431060595224 3.5 L 71.6431060595224 0 L 64.6431060595224 -3.5 L 64.6431060595224 -0.5 L 62.24655322049606 -0.5 Z"/><text text-anchor="middle" pointer-events="none" font-size="8px" fill="#000000" x="44.8215530297612" y="3" transform="rotate(180 44.8215530297612 0)" font-family="sans-serif">ACTE…</text></g><g class="relationship" transform="translate(191.70331607875184 -2.8184302670669794) rotate(505.649926644051)"><path class="outline" fill="#A5ABB6" stroke="none" d="M 25 0.5 L 26.774932051421956 0.5 L 26.774932051421956 -0.5 L 25 -0.5 Z M 67.79159846377547 0.5 L 69.56653051519743 0.5 L 69.56653051519743 3.5 L 76.56653051519743 0 L 69.56653051519743 -3.5 L 69.56653051519743 -0.5 L 67.79159846377547 -0.5 Z"/><text text-anchor="middle" pointer-events="none" font-size="8px" fill="#000000" x="47.283265257598714" y="3" transform="rotate(180 47.283265257598714 0)" font-family="sans-serif">ACTED…</text></g><g class="relationship" transform="translate(191.70331607875184 -2.8184302670669794) rotate(537.6772342033637)"><path class="outline" fill="#A5ABB6" stroke="none" d="M 25 0.5 L 30.06158517406412 0.5 L 30.06158517406412 -0.5 L 25 -0.5 Z M 75.42825006053873 0.5 L 80.48983523460285 0.5 L 80.48983523460285 3.5 L 87.48983523460285 0 L 80.48983523460285 -3.5 L 80.48983523460285 -0.5 L 75.42825006053873 -0.5 Z"/><text text-anchor="middle" pointer-events="none" font-size="8px" fill="#000000" x="52.744917617301425" y="3" transform="rotate(180 52.744917617301425 0)" font-family="sans-serif">ACTED_IN</text></g><g class="relationship" transform="translate(191.70331607875184 -2.8184302670669794) rotate(477.65550795024143)"><path class="outline" fill="#A5ABB6" stroke="none" d="M 25 0.5 L 36.86854726606008 0.5 L 36.86854726606008 -0.5 L 25 -0.5 Z M 82.23521215253469 0.5 L 94.10375941859476 0.5 L 94.10375941859476 3.5 L 101.10375941859476 0 L 94.10375941859476 -3.5 L 94.10375941859476 -0.5 L 82.23521215253469 -0.5 Z"/><text text-anchor="middle" pointer-events="none" font-size="8px" fill="#000000" x="59.55187970929738" y="3" transform="rotate(180 59.55187970929738 0)" font-family="sans-serif">ACTED_IN</text></g><g class="relationship" transform="translate(147.69332546482318 -45.44517781611009) rotate(471.73698935787075)"><path class="outline" fill="#A5ABB6" stroke="none" d="M 25 0.5 L 27.60938974048294 0.5 L 27.60938974048294 -0.5 L 25 -0.5 Z M 72.97605462695755 0.5 L 75.58544436744049 0.5 L 75.58544436744049 3.5 L 82.58544436744049 0 L 75.58544436744049 -3.5 L 75.58544436744049 -0.5 L 72.97605462695755 -0.5 Z"/><text text-anchor="middle" pointer-events="none" font-size="8px" fill="#000000" x="50.292722183720244" y="3" transform="rotate(180 50.292722183720244 0)" font-family="sans-serif">ACTED_IN</text></g><g class="relationship" transform="translate(147.69332546482318 -45.44517781611009) rotate(505.3951719389284)"><path class="outline" fill="#A5ABB6" stroke="none" d="M 25 0.5 L 25.584841450157754 0.5 L 25.584841450157754 -0.5 L 25 -0.5 Z M 50.50150748104154 0.5 L 51.086348931199296 0.5 L 51.086348931199296 3.5 L 58.086348931199296 0 L 51.086348931199296 -3.5 L 51.086348931199296 -0.5 L 50.50150748104154 -0.5 Z"/><text text-anchor="middle" pointer-events="none" font-size="8px" fill="#000000" x="38.04317446559965" y="3" transform="rotate(180 38.04317446559965 0)" font-family="sans-serif">AC…</text></g><g class="relationship" transform="translate(147.69332546482318 -45.44517781611009) rotate(455.37561497100046)"><path class="outline" fill="#A5ABB6" stroke="none" d="M 25 0.5 L 51.31937900515432 0.5 L 51.31937900515432 -0.5 L 25 -0.5 Z M 96.68604389162893 0.5 L 123.00542289678324 0.5 L 123.00542289678324 3.5 L 130.00542289678324 0 L 123.00542289678324 -3.5 L 123.00542289678324 -0.5 L 96.68604389162893 -0.5 Z"/><text text-anchor="middle" pointer-events="none" font-size="8px" fill="#000000" x="74.00271144839162" y="3" transform="rotate(180 74.00271144839162 0)" font-family="sans-serif">ACTED_IN</text></g><g class="relationship" transform="translate(10.575446470290224 102.82760914509836) rotate(231.18312895256634)"><path class="outline" fill="#A5ABB6" stroke="none" d="M 25 0.5 L 35.88196024892119 0.5 L 35.88196024892119 -0.5 L 25 -0.5 Z M 81.2486251353958 0.5 L 92.13058538431699 0.5 L 92.13058538431699 3.5 L 99.13058538431699 0 L 92.13058538431699 -3.5 L 92.13058538431699 -0.5 L 81.2486251353958 -0.5 Z"/><text text-anchor="middle" pointer-events="none" font-size="8px" fill="#000000" x="58.56529269215849" y="3" transform="rotate(180 58.56529269215849 0)" font-family="sans-serif">ACTED_IN</text></g><g class="relationship" transform="translate(10.575446470290224 102.82760914509836) rotate(183.33096868223868)"><path class="outline" fill="#A5ABB6" stroke="none" d="M 25 0.5 L 34.740230582045115 0.5 L 34.740230582045115 -0.5 L 25 -0.5 Z M 80.10689546851972 0.5 L 89.84712605056484 0.5 L 89.84712605056484 3.5 L 96.84712605056484 0 L 89.84712605056484 -3.5 L 89.84712605056484 -0.5 L 80.10689546851972 -0.5 Z"/><text text-anchor="middle" pointer-events="none" font-size="8px" fill="#000000" x="57.42356302528242" y="3" transform="rotate(180 57.42356302528242 0)" font-family="sans-serif">ACTED_IN</text></g><g class="relationship" transform="translate(10.575446470290224 102.82760914509836) rotate(496.4250000496687)"><path class="outline" fill="#A5ABB6" stroke="none" d="M 25 0.5 L 35.410816474983925 0.5 L 35.410816474983925 -0.5 L 25 -0.5 Z M 80.77748136145854 0.5 L 91.18829783644246 0.5 L 91.18829783644246 3.5 L 98.18829783644246 0 L 91.18829783644246 -3.5 L 91.18829783644246 -0.5 L 80.77748136145854 -0.5 Z"/><text text-anchor="middle" pointer-events="none" font-size="8px" fill="#000000" x="58.09414891822123" y="3" transform="rotate(180 58.09414891822123 0)" font-family="sans-serif">ACTED_IN</text></g><g class="relationship" transform="translate(10.575446470290224 102.82760914509836) rotate(452.4831979073139)"><path class="outline" fill="#A5ABB6" stroke="none" d="M 25 0.5 L 36.45393802162835 0.5 L 36.45393802162835 -0.5 L 25 -0.5 Z M 81.82060290810296 0.5 L 93.27454092973132 0.5 L 93.27454092973132 3.5 L 100.27454092973132 0 L 93.27454092973132 -3.5 L 93.27454092973132 -0.5 L 81.82060290810296 -0.5 Z"/><text text-anchor="middle" pointer-events="none" font-size="8px" fill="#000000" x="59.13727046486566" y="3" transform="rotate(180 59.13727046486566 0)" font-family="sans-serif">ACTED_IN</text></g><g class="relationship" transform="translate(10.575446470290224 102.82760914509836) rotate(333.5763184734616)"><path class="outline" fill="#A5ABB6" stroke="none" d="M 25 0.5 L 28.127640915848843 0.5 L 28.127640915848843 -0.5 L 25 -0.5 Z M 73.49430580232345 0.5 L 76.6219467181723 0.5 L 76.6219467181723 3.5 L 83.6219467181723 0 L 76.6219467181723 -3.5 L 76.6219467181723 -0.5 L 73.49430580232345 -0.5 Z"/><text text-anchor="middle" pointer-events="none" font-size="8px" fill="#000000" x="50.81097335908615" y="3" font-family="sans-serif">ACTED_IN</text></g><g class="relationship" transform="translate(10.575446470290224 102.82760914509836) rotate(304.21234020114116)"><path class="outline" fill="#A5ABB6" stroke="none" d="M 25 0.5 L 34.93632404441431 0.5 L 34.93632404441431 -0.5 L 25 -0.5 Z M 80.30298893088892 0.5 L 90.23931297530324 0.5 L 90.23931297530324 3.5 L 97.23931297530324 0 L 90.23931297530324 -3.5 L 90.23931297530324 -0.5 L 80.30298893088892 -0.5 Z"/><text text-anchor="middle" pointer-events="none" font-size="8px" fill="#000000" x="57.61965648765162" y="3" font-family="sans-serif">ACTED_IN</text></g><g class="relationship" transform="translate(10.575446470290224 102.82760914509836) rotate(362.82562079946297)"><path class="outline" fill="#A5ABB6" stroke="none" d="M 25 0.5 L 35.18941433933174 0.5 L 35.18941433933174 -0.5 L 25 -0.5 Z M 80.55607922580634 0.5 L 90.74549356513809 0.5 L 90.74549356513809 3.5 L 97.74549356513809 0 L 90.74549356513809 -3.5 L 90.74549356513809 -0.5 L 80.55607922580634 -0.5 Z"/><text text-anchor="middle" pointer-events="none" font-size="8px" fill="#000000" x="57.872746782569045" y="3" font-family="sans-serif">ACTED_IN</text></g></g><g class="layer nodes"><g class="node" transform="translate(133.17170526186476,108.87851989131153)"><circle class="outline" cx="0" cy="0" r="25" fill="#57C7E3" stroke="#23b3d7" stroke-width="2px"/><text text-anchor="middle" pointer-events="none" font-family="sans-serif" dy="1.5625" font-size="25" fill="#FFFFFF"/><text text-anchor="middle" pointer-events="none" font-family="sans-serif" dy="1.5625" font-size="25" fill="#FFFFFF"/><text text-anchor="middle" pointer-events="none" y="0" font-size="10px" fill="#FFFFFF" font-family="sans-serif"> The</text><text text-anchor="middle" pointer-events="none" y="10" font-size="10px" fill="#FFFFFF" font-family="sans-serif"> Matrix</text></g><g class="node" transform="translate(166.52125898118572,231.89458916925068)"><circle class="outline" cx="0" cy="0" r="25" fill="#F79767" stroke="#f36924" stroke-width="2px"/><text text-anchor="middle" pointer-events="none" font-family="sans-serif" dy="1.5625" font-size="25" fill="#FFFFFF"/><text text-anchor="middle" pointer-events="none" font-family="sans-serif" dy="1.5625" font-size="25" fill="#FFFFFF"/><text text-anchor="middle" pointer-events="none" y="0" font-size="10px" fill="#FFFFFF" font-family="sans-serif"> Emil</text><text text-anchor="middle" pointer-events="none" y="10" font-size="10px" fill="#FFFFFF" font-family="sans-serif"> Eifrem</text></g><g class="node" transform="translate(302.71773328448137,150.40259522198556)"><circle class="outline" cx="0" cy="0" r="25" fill="#57C7E3" stroke="#23b3d7" stroke-width="2px"/><text text-anchor="middle" pointer-events="none" font-family="sans-serif" dy="1.5625" font-size="25" fill="#FFFFFF"/><text text-anchor="middle" pointer-events="none" font-family="sans-serif" dy="1.5625" font-size="25" fill="#FFFFFF"/><text text-anchor="middle" pointer-events="none" y="0" font-size="10px" fill="#FFFFFF" font-family="sans-serif"> Cloud</text><text text-anchor="middle" pointer-events="none" y="10" font-size="10px" fill="#FFFFFF" font-family="sans-serif"> Atlas</text></g><g class="node" transform="translate(218.0405289734764,62.648954560892506)"><circle class="outline" cx="0" cy="0" r="25" fill="#F79767" stroke="#f36924" stroke-width="2px"/><text text-anchor="middle" pointer-events="none" font-family="sans-serif" dy="1.5625" font-size="25" fill="#FFFFFF"/><text text-anchor="middle" pointer-events="none" font-family="sans-serif" dy="1.5625" font-size="25" fill="#FFFFFF"/><text text-anchor="middle" pointer-events="none" y="0" font-size="10px" fill="#FFFFFF" font-family="sans-serif"> Hugo</text><text text-anchor="middle" pointer-events="none" y="10" font-size="10px" fill="#FFFFFF" font-family="sans-serif"> Weavi…</text></g><g class="node" transform="translate(335.98883317000434,41.71337511974035)"><circle class="outline" cx="0" cy="0" r="25" fill="#57C7E3" stroke="#23b3d7" stroke-width="2px"/><text text-anchor="middle" pointer-events="none" font-family="sans-serif" dy="1.5625" font-size="25" fill="#FFFFFF"/><text text-anchor="middle" pointer-events="none" font-family="sans-serif" dy="1.5625" font-size="25" fill="#FFFFFF"/><text text-anchor="middle" pointer-events="none" y="0" font-size="10px" fill="#FFFFFF" font-family="sans-serif"> V for</text><text text-anchor="middle" pointer-events="none" y="10" font-size="10px" fill="#FFFFFF" font-family="sans-serif"> Vendet…</text></g><g class="node" transform="translate(107.84943105302432,54.490260932319174)"><circle class="outline" cx="0" cy="0" r="25" fill="#57C7E3" stroke="#23b3d7" stroke-width="2px"/><text text-anchor="middle" pointer-events="none" font-family="sans-serif" dy="1.5625" font-size="25" fill="#FFFFFF"/><text text-anchor="middle" pointer-events="none" font-family="sans-serif" dy="1.5625" font-size="25" fill="#FFFFFF"/><text text-anchor="middle" pointer-events="none" font-family="sans-serif" dy="1.5625" font-size="25" fill="#FFFFFF"/><text text-anchor="middle" pointer-events="none" y="-5" font-size="10px" fill="#FFFFFF" font-family="sans-serif"> The</text><text text-anchor="middle" pointer-events="none" y="5" font-size="10px" fill="#FFFFFF" font-family="sans-serif"> Matrix</text><text text-anchor="middle" pointer-events="none" y="15" font-size="10px" fill="#FFFFFF" font-family="sans-serif"> Revol…</text></g><g class="node" transform="translate(79.30590582819667,1.740648595652089)"><circle class="outline" cx="0" cy="0" r="25" fill="#57C7E3" stroke="#23b3d7" stroke-width="2px"/><text text-anchor="middle" pointer-events="none" font-family="sans-serif" dy="1.5625" font-size="25" fill="#FFFFFF"/><text text-anchor="middle" pointer-events="none" font-family="sans-serif" dy="1.5625" font-size="25" fill="#FFFFFF"/><text text-anchor="middle" pointer-events="none" font-family="sans-serif" dy="1.5625" font-size="25" fill="#FFFFFF"/><text text-anchor="middle" pointer-events="none" y="-5" font-size="10px" fill="#FFFFFF" font-family="sans-serif"> The</text><text text-anchor="middle" pointer-events="none" y="5" font-size="10px" fill="#FFFFFF" font-family="sans-serif"> Matrix</text><text text-anchor="middle" pointer-events="none" y="15" font-size="10px" fill="#FFFFFF" font-family="sans-serif"> Reloa…</text></g><g class="node" transform="translate(191.70331607875184,-2.8184302670669794)"><circle class="outline" cx="0" cy="0" r="25" fill="#F79767" stroke="#f36924" stroke-width="2px"/><text text-anchor="middle" pointer-events="none" font-family="sans-serif" dy="1.5625" font-size="25" fill="#FFFFFF"/><text text-anchor="middle" pointer-events="none" y="5" font-size="10px" fill="#FFFFFF" font-family="sans-serif"> Lauren…</text></g><g class="node" transform="translate(147.69332546482318,-45.44517781611009)"><circle class="outline" cx="0" cy="0" r="25" fill="#F79767" stroke="#f36924" stroke-width="2px"/><text text-anchor="middle" pointer-events="none" font-family="sans-serif" dy="1.5625" font-size="25" fill="#FFFFFF"/><text text-anchor="middle" pointer-events="none" y="5" font-size="10px" fill="#FFFFFF" font-family="sans-serif"> Carrie-…</text></g><g class="node" transform="translate(-67.2337335794277,6.110838480214238)"><circle class="outline" cx="0" cy="0" r="25" fill="#57C7E3" stroke="#23b3d7" stroke-width="2px"/><text text-anchor="middle" pointer-events="none" font-family="sans-serif" dy="1.5625" font-size="25" fill="#FFFFFF"/><text text-anchor="middle" pointer-events="none" y="5" font-size="10px" fill="#FFFFFF" font-family="sans-serif"> Someth…</text></g><g class="node" transform="translate(10.575446470290224,102.82760914509836)"><circle class="outline" cx="0" cy="0" r="25" fill="#F79767" stroke="#f36924" stroke-width="2px"/><text text-anchor="middle" pointer-events="none" font-family="sans-serif" dy="1.5625" font-size="25" fill="#FFFFFF"/><text text-anchor="middle" pointer-events="none" font-family="sans-serif" dy="1.5625" font-size="25" fill="#FFFFFF"/><text text-anchor="middle" pointer-events="none" y="0" font-size="10px" fill="#FFFFFF" font-family="sans-serif"> Keanu</text><text text-anchor="middle" pointer-events="none" y="10" font-size="10px" fill="#FFFFFF" font-family="sans-serif"> Reeves</text></g><g class="node" transform="translate(-111.06582581989517,95.74784909215782)"><circle class="outline" cx="0" cy="0" r="25" fill="#57C7E3" stroke="#23b3d7" stroke-width="2px"/><text text-anchor="middle" pointer-events="none" font-family="sans-serif" dy="1.5625" font-size="25" fill="#FFFFFF"/><text text-anchor="middle" pointer-events="none" font-family="sans-serif" dy="1.5625" font-size="25" fill="#FFFFFF"/><text text-anchor="middle" pointer-events="none" y="0" font-size="10px" fill="#FFFFFF" font-family="sans-serif"> The</text><text text-anchor="middle" pointer-events="none" y="10" font-size="10px" fill="#FFFFFF" font-family="sans-serif"> Replac…</text></g><g class="node" transform="translate(-78.67111182574246,187.74173374255798)"><circle class="outline" cx="0" cy="0" r="25" fill="#57C7E3" stroke="#23b3d7" stroke-width="2px"/><text text-anchor="middle" pointer-events="none" font-family="sans-serif" dy="1.5625" font-size="25" fill="#FFFFFF"/><text text-anchor="middle" pointer-events="none" font-family="sans-serif" dy="1.5625" font-size="25" fill="#FFFFFF"/><text text-anchor="middle" pointer-events="none" y="0" font-size="10px" fill="#FFFFFF" font-family="sans-serif"> Johnny</text><text text-anchor="middle" pointer-events="none" y="10" font-size="10px" fill="#FFFFFF" font-family="sans-serif"> Mnem…</text></g><g class="node" transform="translate(5.147750000878875,227.98451353391292)"><circle class="outline" cx="0" cy="0" r="25" fill="#57C7E3" stroke="#23b3d7" stroke-width="2px"/><text text-anchor="middle" pointer-events="none" font-family="sans-serif" dy="1.5625" font-size="25" fill="#FFFFFF"/><text text-anchor="middle" pointer-events="none" font-family="sans-serif" dy="1.5625" font-size="25" fill="#FFFFFF"/><text text-anchor="middle" pointer-events="none" font-family="sans-serif" dy="1.5625" font-size="25" fill="#FFFFFF"/><text text-anchor="middle" pointer-events="none" y="-5" font-size="10px" fill="#FFFFFF" font-family="sans-serif"> The</text><text text-anchor="middle" pointer-events="none" y="5" font-size="10px" fill="#FFFFFF" font-family="sans-serif"> Devil's</text><text text-anchor="middle" pointer-events="none" y="15" font-size="10px" fill="#FFFFFF" font-family="sans-serif"> Advo…</text></g></g></svg>