<svg xmlns="http://www.w3.org/2000/svg" width="363.12353515625" height="363.515869140625" viewBox="-89.80047607421875 -76.48887634277344 363.12353515625 363.515869140625"><title>Neo4j Graph Visualization</title><desc>Created using Neo4j (http://www.neo4j.com/)</desc><g class="layer relationships"><g class="relationship" transform="translate(135.05831677476223 258.0269824302605) rotate(330.86914495551383)"><path class="outline" fill="#A5ABB6" stroke="none" d="M 21.40063509461097,12.933012701892217 L 21.90063509461097,12.06698729810778 A 57.531493354440116 57.531493354440116 0 0 0 24.34520790559978,13.400544624666828 L 23.88769894256849,14.289749634069068 A 58.531493354440116 58.531493354440116 0 0 1 21.40063509461097,12.933012701892217 Z M 74.11870006958347,15.870899143966113 L 73.71802144421957,14.954680480558459 A 57.531493354440116 57.531493354440116 0 0 0 76.24162587138241,13.777509266737242 L 74.9079957529017,11.090237284395089 L 82.73419884992755,11.113584320672608 L 78.01979936269002,17.36053857652678 L 76.68616924420931,14.673266594184627 A 58.531493354440116 58.531493354440116 0 0 1 74.11870006958347,15.870899143966113"/><text text-anchor="middle" pointer-events="none" font-size="8px" fill="#000000" x="48.84059607931329" y="23.246017362292868" font-family="sans-serif">PRODUCED</text></g><g class="relationship" transform="translate(135.05831677476223 258.0269824302605) rotate(330.86914495551383)"><path class="outline" fill="#A5ABB6" stroke="none" d="M 25 0.5 L 25.647399987172307 0.5 L 25.647399987172307 -0.5 L 25 -0.5 Z M 72.48073204893988 0.5 L 73.12813203611219 0.5 L 73.12813203611219 3.5 L 80.12813203611219 0 L 73.12813203611219 -3.5 L 73.12813203611219 -0.5 L 72.48073204893988 -0.5 Z"/><text text-anchor="middle" pointer-events="none" font-size="8px" fill="#000000" x="49.064066018056096" y="3" font-family="sans-serif">DIRECTED</text></g><g class="relationship" transform="translate(135.05831677476223 258.0269824302605) rotate(330.86914495551383)"><path class="outline" fill="#A5ABB6" stroke="none" d="M 21.40063509461097,-12.933012701892217 L 21.90063509461097,-12.06698729810778 A 57.531493354440116 57.531493354440116 0 0 1 31.523638858557362,-16.496622212867145 L 31.190903832971653,-17.439642574656048 A 58.531493354440116 58.531493354440116 0 0 0 21.40063509461097,-12.933012701892217 Z M 66.63184780688312,-18.555237126573125 L 66.3590807011752,-17.59315703321097 A 57.531493354440116 57.531493354440116 0 0 1 76.24162587138241,-13.777509266737242 L 74.9079957529017,-11.090237284395089 L 82.73419884992755,-11.113584320672608 L 78.01979936269002,-17.36053857652678 L 76.68616924420931,-14.673266594184627 A 58.531493354440116 58.531493354440116 0 0 0 66.63184780688312,-18.555237126573125"/><text text-anchor="middle" pointer-events="none" font-size="8px" fill="#000000" x="48.84059607931331" y="-17.246017362292868" font-family="sans-serif">WROTE</text></g><g class="relationship" transform="translate(244.32305916137443 16.85813469243274) rotate(203.12973108732672)"><path class="outline" fill="#A5ABB6" stroke="none" d="M 24.018736134675446,6.953439040707552 L 24.277555179777966,5.987513214418485 A 99.599314322593 99.599314322593 0 0 0 25.385796578916334,6.277644917852413 L 25.13810453209363,7.246483733105379 A 100.599314322593 100.599314322593 0 0 1 24.018736134675446,6.953439040707552 Z M 71.77100560860097,8.009606569151444 L 71.55514677149849,7.0331819881188125 A 99.599314322593 99.599314322593 0 0 0 72.67228792683886,6.779467496718835 L 71.99106235390062,3.8578358089842295 L 79.60296612704265,5.676879774485367 L 73.58058869075651,10.67497641369831 L 72.89936311781827,7.753344725963704 A 100.599314322593 100.599314322593 0 0 1 71.77100560860097,8.009606569151444"/><text text-anchor="middle" pointer-events="none" font-size="8px" fill="#000000" x="48.41790140082104" y="12.867877147201028" transform="rotate(180 48.41790140082104 9.867877147201028)" font-family="sans-serif">DIRECTED</text></g><g class="relationship" transform="translate(244.32305916137443 16.85813469243274) rotate(203.12973108732672)"><path class="outline" fill="#A5ABB6" stroke="none" d="M 24.018736134675446,-6.953439040707552 L 24.277555179777966,-5.987513214418485 A 99.599314322593 99.599314322593 0 0 1 30.779296357847052,-7.498090716016236 L 30.585756288029547,-8.479183087495613 A 100.599314322593 100.599314322593 0 0 0 24.018736134675446,-6.953439040707552 Z M 66.28593664134036,-9.063397713857341 L 66.1246017242486,-8.076498000346902 A 99.599314322593 99.599314322593 0 0 1 72.67228792683886,-6.779467496718835 L 71.99106235390062,-3.8578358089842295 L 79.60296612704265,-5.676879774485367 L 73.58058869075651,-10.67497641369831 L 72.89936311781827,-7.753344725963704 A 100.599314322593 100.599314322593 0 0 0 66.28593664134036,-9.063397713857341"/><text text-anchor="middle" pointer-events="none" font-size="8px" fill="#000000" x="48.41790140082102" y="-6.867877147201028" transform="rotate(180 48.41790140082102 -9.867877147201028)" font-family="sans-serif">WROTE</text></g><g class="relationship" transform="translate(47.56637362534295 -47.48887943052396) rotate(373.08535703704194)"><path class="outline" fill="#A5ABB6" stroke="none" d="M 24.018736134675446,6.953439040707552 L 24.277555179777966,5.987513214418485 A 99.41790130829425 99.41790130829425 0 0 0 25.341579794704508,6.266318278505381 L 25.093463295128743,7.235048479664755 A 100.41790130829425 100.41790130829425 0 0 1 24.018736134675446,6.953439040707552 Z M 71.72522340631987,7.998777357555369 L 71.50896294219046,7.022441651123131 A 99.41790130829425 99.41790130829425 0 0 0 72.58154691061993,6.778629683414497 L 71.90039959757814,3.8569797492273166 L 79.51225464256365,5.6762276086815335 L 73.48974332800898,10.674162928997404 L 72.8085960149672,7.752512994810225 A 100.41790130829425 100.41790130829425 0 0 1 71.72522340631987,7.998777357555369"/><text text-anchor="middle" pointer-events="none" font-size="8px" fill="#000000" x="48.37257855330564" y="12.861698029393068" font-family="sans-serif">DIRECTED</text></g><g class="relationship" transform="translate(47.56637362534295 -47.48887943052396) rotate(373.08535703704194)"><path class="outline" fill="#A5ABB6" stroke="none" d="M 24.018736134675446,-6.953439040707552 L 24.277555179777966,-5.987513214418485 A 99.41790130829425 99.41790130829425 0 0 1 30.734554303118625,-7.488843439358618 L 30.540683311016313,-8.469870471820656 A 100.41790130829425 100.41790130829425 0 0 0 24.018736134675446,-6.953439040707552 Z M 66.24048821245142,-9.054557214788872 L 66.07884684633554,-8.06770764734702 A 99.41790130829425 99.41790130829425 0 0 1 72.58154691061993,-6.778629683414497 L 71.90039959757814,-3.8569797492273166 L 79.51225464256365,-5.6762276086815335 L 73.48974332800898,-10.674162928997404 L 72.8085960149672,-7.752512994810225 A 100.41790130829425 100.41790130829425 0 0 0 66.24048821245142,-9.054557214788872"/><text text-anchor="middle" pointer-events="none" font-size="8px" fill="#000000" x="48.372578553305594" y="-6.861698029393068" font-family="sans-serif">WROTE</text></g><g class="relationship" transform="translate(-60.800471772888166 94.90253373725743) rotate(432.3002982134064)"><path class="outline" fill="#A5ABB6" stroke="none" d="M 21.40063509461097,12.933012701892217 L 21.90063509461097,12.06698729810778 A 57.15651007842194 57.15651007842194 0 0 0 31.347548516466155,16.427615217955477 L 31.012830011240652,17.3699333819848 A 58.15651007842194 58.15651007842194 0 0 1 21.40063509461097,12.933012701892217 Z M 66.4482820097966,18.48899710119135 L 66.17368864347456,17.52743665942394 A 57.15651007842194 57.15651007842194 0 0 0 75.87692352534192,13.771576986500095 L 74.54384527983642,11.08403119314885 L 82.37004341741242,11.108985379212477 L 77.65436118601592,17.354971377635092 L 76.32128294051041,14.667425584283846 A 58.15651007842194 58.15651007842194 0 0 1 66.4482820097966,18.48899710119135"/><text text-anchor="middle" pointer-events="none" font-size="8px" fill="#000000" x="48.65898507036749" y="23.195778205442387" font-family="sans-serif">WROTE</text></g><g class="relationship" transform="translate(-60.800471772888166 94.90253373725743) rotate(432.3002982134064)"><path class="outline" fill="#A5ABB6" stroke="none" d="M 25 0.5 L 25.46646315011928 0.5 L 25.46646315011928 -0.5 L 25 -0.5 Z M 72.29979521188686 0.5 L 72.76625836200614 0.5 L 72.76625836200614 3.5 L 79.76625836200614 0 L 72.76625836200614 -3.5 L 72.76625836200614 -0.5 L 72.29979521188686 -0.5 Z"/><text text-anchor="middle" pointer-events="none" font-size="8px" fill="#000000" x="48.88312918100307" y="3" font-family="sans-serif">DIRECTED</text></g><g class="relationship" transform="translate(-60.800471772888166 94.90253373725743) rotate(432.3002982134064)"><path class="outline" fill="#A5ABB6" stroke="none" d="M 21.40063509461097,-12.933012701892217 L 21.90063509461097,-12.06698729810778 A 57.15651007842194 57.15651007842194 0 0 1 24.17750188235467,-13.313476395766926 L 23.7173375333526,-14.201310148170776 A 58.15651007842194 58.15651007842194 0 0 0 21.40063509461097,-12.933012701892217 Z M 73.92917015208151,-15.787017031796289 L 73.52594306732973,-14.871917081997047 A 57.15651007842194 57.15651007842194 0 0 1 75.87692352534192,-13.771576986500095 L 74.54384527983642,-11.08403119314885 L 82.37004341741242,-11.108985379212477 L 77.65436118601592,-17.354971377635092 L 76.32128294051041,-14.667425584283846 A 58.15651007842194 58.15651007842194 0 0 0 73.92917015208151,-15.787017031796289"/><text text-anchor="middle" pointer-events="none" font-size="8px" fill="#000000" x="48.65898507036749" y="-17.195778205442387" font-family="sans-serif">PRODUCED</text></g></g><g class="layer nodes"><g class="node" transform="translate(135.05831677476223,258.0269824302605)"><circle class="outline" cx="0" cy="0" r="25" fill="#F79767" stroke="#f36924" stroke-width="2px"/><text text-anchor="middle" pointer-events="none" font-family="sans-serif" dy="1.5625" font-size="25" fill="#FFFFFF"/><text text-anchor="middle" pointer-events="none" y="5" font-size="10px" fill="#FFFFFF" font-family="sans-serif"> Cameron</text></g><g class="node" transform="translate(226.88881178341194,206.84999217224905)"><circle class="outline" cx="0" cy="0" r="25" fill="#57C7E3" stroke="#23b3d7" stroke-width="2px"/><text text-anchor="middle" pointer-events="none" font-family="sans-serif" dy="1.5625" font-size="25" fill="#FFFFFF"/><text text-anchor="middle" pointer-events="none" font-family="sans-serif" dy="1.5625" font-size="25" fill="#FFFFFF"/><text text-anchor="middle" pointer-events="none" y="0" font-size="10px" fill="#FFFFFF" font-family="sans-serif"> Jerry</text><text text-anchor="middle" pointer-events="none" y="10" font-size="10px" fill="#FFFFFF" font-family="sans-serif"> Maguire</text></g><g class="node" transform="translate(244.32305916137443,16.85813469243274)"><circle class="outline" cx="0" cy="0" r="25" fill="#F79767" stroke="#f36924" stroke-width="2px"/><text text-anchor="middle" pointer-events="none" font-family="sans-serif" dy="1.5625" font-size="25" fill="#FFFFFF"/><text text-anchor="middle" pointer-events="none" font-family="sans-serif" dy="1.5625" font-size="25" fill="#FFFFFF"/><text text-anchor="middle" pointer-events="none" y="0" font-size="10px" fill="#FFFFFF" font-family="sans-serif"> Lana</text><text text-anchor="middle" pointer-events="none" y="10" font-size="10px" fill="#FFFFFF" font-family="sans-serif"> Wacho…</text></g><g class="node" transform="translate(148.72888498521422,-23.974877937067845)"><circle class="outline" cx="0" cy="0" r="25" fill="#57C7E3" stroke="#23b3d7" stroke-width="2px"/><text text-anchor="middle" pointer-events="none" font-family="sans-serif" dy="1.5625" font-size="25" fill="#FFFFFF"/><text text-anchor="middle" pointer-events="none" font-family="sans-serif" dy="1.5625" font-size="25" fill="#FFFFFF"/><text text-anchor="middle" pointer-events="none" y="0" font-size="10px" fill="#FFFFFF" font-family="sans-serif"> Speed</text><text text-anchor="middle" pointer-events="none" y="10" font-size="10px" fill="#FFFFFF" font-family="sans-serif"> Racer</text></g><g class="node" transform="translate(47.56637362534295,-47.48887943052396)"><circle class="outline" cx="0" cy="0" r="25" fill="#F79767" stroke="#f36924" stroke-width="2px"/><text text-anchor="middle" pointer-events="none" font-family="sans-serif" dy="1.5625" font-size="25" fill="#FFFFFF"/><text text-anchor="middle" pointer-events="none" font-family="sans-serif" dy="1.5625" font-size="25" fill="#FFFFFF"/><text text-anchor="middle" pointer-events="none" y="0" font-size="10px" fill="#FFFFFF" font-family="sans-serif"> Lilly</text><text text-anchor="middle" pointer-events="none" y="10" font-size="10px" fill="#FFFFFF" font-family="sans-serif"> Wacho…</text></g><g class="node" transform="translate(-60.800471772888166,94.90253373725743)"><circle class="outline" cx="0" cy="0" r="25" fill="#F79767" stroke="#f36924" stroke-width="2px"/><text text-anchor="middle" pointer-events="none" font-family="sans-serif" dy="1.5625" font-size="25" fill="#FFFFFF"/><text text-anchor="middle" pointer-events="none" font-family="sans-serif" dy="1.5625" font-size="25" fill="#FFFFFF"/><text text-anchor="middle" pointer-events="none" y="0" font-size="10px" fill="#FFFFFF" font-family="sans-serif"> Nancy</text><text text-anchor="middle" pointer-events="none" y="10" font-size="10px" fill="#FFFFFF" font-family="sans-serif"> Meyers</text></g><g class="node" transform="translate(-28.948585036711243,194.70947839803932)"><circle class="outline" cx="0" cy="0" r="25" fill="#57C7E3" stroke="#23b3d7" stroke-width="2px"/><text text-anchor="middle" pointer-events="none" font-family="sans-serif" dy="1.5625" font-size="25" fill="#FFFFFF"/><text text-anchor="middle" pointer-events="none" y="5" font-size="10px" fill="#FFFFFF" font-family="sans-serif"> Someth…</text></g></g></svg>